# xmcd
#
# Track frame offsets: 
#        150
#        15020
#        29135
#        46087
#        74845
#        125852
#        141287
#
# Disc length: 2276 seconds
#
# Revision: 1
# Processed by: cddbd v1.5.2PL0 Copyright (c) Steve Scherf et al.
# Submitted via: ExactAudioCopy v0.95b2
#
DISCID=6508e207
DTITLE=Little Milton - Waiting For Little Milton
DYEAR=1973
DGENRE=Blues
TTITLE0=It's Amazing
TTITLE1=Who Can Handle Me Is You
TTITLE2=Woman, You Don't Have To Be So Cold
TTITLE3=The Thrill Is Gone
TTITLE4=Monologue I - That's How Strong My Love Is
TTITLE5=What It Is
TTITLE6=Little Bluebird
EXTD=
EXTT0=
EXTT1=
EXTT2=
EXTT3=
EXTT4=
EXTT5=
EXTT6=
PLAYORDER=
